<mxfile host="app.diagrams.net" modified="2023-10-07T08:57:17.368Z" agent="Mozilla/5.0 (Macintosh; Intel Mac OS X 10_15_7) AppleWebKit/537.36 (KHTML, like Gecko) Chrome/117.0.0.0 Safari/537.36" etag="CkDQs9awz-1wl7nwicaX" version="22.0.4" type="github">
  <diagram name="Page-1" id="c7558073-3199-34d8-9f00-42111426c3f3">
    <mxGraphModel dx="792" dy="430" grid="1" gridSize="10" guides="1" tooltips="1" connect="1" arrows="1" fold="1" page="1" pageScale="1" pageWidth="826" pageHeight="1169" background="none" math="0" shadow="0">
      <root>
        <mxCell id="0" />
        <mxCell id="1" parent="0" />
        <mxCell id="BsG8wyNZoEby_xwL2VTw-96" value="" style="fillColor=#DEE8FF;strokeColor=none" vertex="1" parent="1">
          <mxGeometry x="20" y="20" width="1570" height="800" as="geometry" />
        </mxCell>
        <mxCell id="BsG8wyNZoEby_xwL2VTw-97" value="" style="fillColor=#CCD5EB" vertex="1" parent="1">
          <mxGeometry x="120" y="420" width="1460" height="390" as="geometry" />
        </mxCell>
        <mxCell id="BsG8wyNZoEby_xwL2VTw-98" value="" style="edgeStyle=elbowEdgeStyle;elbow=horizontal;endArrow=none;dashed=1;rounded=0;" edge="1" parent="1">
          <mxGeometry x="1460" y="437.8935185185186" width="100" height="100" as="geometry">
            <mxPoint x="1334.5" y="620" as="sourcePoint" />
            <mxPoint x="1334.5" y="780" as="targetPoint" />
          </mxGeometry>
        </mxCell>
        <mxCell id="BsG8wyNZoEby_xwL2VTw-99" value="" style="fillColor=#CC4125;strokeColor=#660000" vertex="1" parent="1">
          <mxGeometry x="180" y="160" width="10" height="130" as="geometry" />
        </mxCell>
        <mxCell id="BsG8wyNZoEby_xwL2VTw-100" value="validate()" style="edgeStyle=none;verticalLabelPosition=top;verticalAlign=bottom;labelPosition=left;align=right;rounded=0;" edge="1" parent="1">
          <mxGeometry x="110" y="49.5" width="100" height="100" as="geometry">
            <mxPoint x="90" y="159.5" as="sourcePoint" />
            <mxPoint x="180" y="159.5" as="targetPoint" />
          </mxGeometry>
        </mxCell>
        <mxCell id="BsG8wyNZoEby_xwL2VTw-101" value="aaa" style="shadow=1;fillColor=#A2C4C9;strokeColor=none" vertex="1" parent="1">
          <mxGeometry x="132.5" y="70" width="105" height="50" as="geometry" />
        </mxCell>
        <mxCell id="BsG8wyNZoEby_xwL2VTw-102" value="" style="fillColor=#CC4125;strokeColor=#660000" vertex="1" parent="1">
          <mxGeometry x="322.5" y="190" width="10" height="80" as="geometry" />
        </mxCell>
        <mxCell id="BsG8wyNZoEby_xwL2VTw-103" value="&lt;&lt;javascript&gt;&gt;&#xa;:Comments" style="shadow=1;fillColor=#A2C4C9;strokeColor=none" vertex="1" parent="1">
          <mxGeometry x="275" y="70" width="105" height="50" as="geometry" />
        </mxCell>
        <mxCell id="BsG8wyNZoEby_xwL2VTw-104" value="" style="edgeStyle=none;endArrow=none;dashed=1;rounded=0;" edge="1" parent="1" source="BsG8wyNZoEby_xwL2VTw-103" target="BsG8wyNZoEby_xwL2VTw-102">
          <mxGeometry x="272.3350694444445" y="165" width="100" height="100" as="geometry">
            <mxPoint x="327.2588734567901" y="120" as="sourcePoint" />
            <mxPoint x="327.5761959876544" y="175" as="targetPoint" />
          </mxGeometry>
        </mxCell>
        <mxCell id="BsG8wyNZoEby_xwL2VTw-105" value="validate()" style="edgeStyle=none;verticalLabelPosition=top;verticalAlign=bottom;rounded=0;" edge="1" parent="1">
          <mxGeometry x="220" y="92" width="100" height="100" as="geometry">
            <mxPoint x="190" y="189.5" as="sourcePoint" />
            <mxPoint x="320" y="189.5" as="targetPoint" />
          </mxGeometry>
        </mxCell>
        <mxCell id="BsG8wyNZoEby_xwL2VTw-106" value="" style="edgeStyle=none;verticalLabelPosition=top;verticalAlign=bottom;endArrow=none;startArrow=classic;dashed=1;rounded=0;" edge="1" parent="1">
          <mxGeometry x="220" y="172.25887345679013" width="100" height="100" as="geometry">
            <mxPoint x="190" y="269.7588734567901" as="sourcePoint" />
            <mxPoint x="320" y="269.7588734567901" as="targetPoint" />
          </mxGeometry>
        </mxCell>
        <mxCell id="BsG8wyNZoEby_xwL2VTw-107" value="" style="edgeStyle=none;verticalLabelPosition=top;verticalAlign=bottom;labelPosition=left;align=right;endArrow=none;startArrow=classic;dashed=1;rounded=0;" edge="1" parent="1">
          <mxGeometry x="110" y="179.75887345679013" width="100" height="100" as="geometry">
            <mxPoint x="90" y="289.7588734567901" as="sourcePoint" />
            <mxPoint x="180" y="289.7588734567901" as="targetPoint" />
          </mxGeometry>
        </mxCell>
        <mxCell id="BsG8wyNZoEby_xwL2VTw-108" value="&lt;&lt;create&gt;&gt;" style="edgeStyle=none;verticalLabelPosition=top;verticalAlign=bottom;dashed=1;rounded=0;" edge="1" parent="1">
          <mxGeometry x="385.45524691358025" y="113.91550925925924" width="100" height="100" as="geometry">
            <mxPoint x="332.5" y="211.20563271604937" as="sourcePoint" />
            <mxPoint x="442.5" y="211.20563271604937" as="targetPoint" />
          </mxGeometry>
        </mxCell>
        <mxCell id="BsG8wyNZoEby_xwL2VTw-109" value="&lt;&lt;javascript&gt;&gt;&#xa;:Proxy" style="shadow=1;fillColor=#A2C4C9;strokeColor=none" vertex="1" parent="1">
          <mxGeometry x="442.2839506172839" y="179.99999999999997" width="105" height="50" as="geometry" />
        </mxCell>
        <mxCell id="BsG8wyNZoEby_xwL2VTw-110" value="" style="edgeStyle=none;endArrow=none;rounded=0;" edge="1" parent="1" source="BsG8wyNZoEby_xwL2VTw-109" target="BsG8wyNZoEby_xwL2VTw-111">
          <mxGeometry x="437.042824074074" y="270" width="100" height="100" as="geometry">
            <mxPoint x="494.542824074074" y="229.99999999999997" as="sourcePoint" />
            <mxPoint x="494.542824074074" y="250" as="targetPoint" />
          </mxGeometry>
        </mxCell>
        <mxCell id="BsG8wyNZoEby_xwL2VTw-111" value="" style="fillColor=#CC4125;strokeColor=#660000" vertex="1" parent="1">
          <mxGeometry x="489.78395061728384" y="254.3942901234568" width="10" height="130" as="geometry" />
        </mxCell>
        <mxCell id="BsG8wyNZoEby_xwL2VTw-112" value="&lt;&lt;ajax&gt;&gt;" style="edgeStyle=elbowEdgeStyle;elbow=vertical;verticalLabelPosition=top;verticalAlign=bottom;rounded=0;" edge="1" parent="1" source="BsG8wyNZoEby_xwL2VTw-102" target="BsG8wyNZoEby_xwL2VTw-111">
          <mxGeometry x="350" y="290" width="100" height="100" as="geometry">
            <mxPoint x="330" y="400" as="sourcePoint" />
            <mxPoint x="430" y="300" as="targetPoint" />
          </mxGeometry>
        </mxCell>
        <mxCell id="BsG8wyNZoEby_xwL2VTw-113" value="" style="fillColor=#CC4125;strokeColor=#660000" vertex="1" parent="1">
          <mxGeometry x="650" y="279.3942901234568" width="10" height="80" as="geometry" />
        </mxCell>
        <mxCell id="BsG8wyNZoEby_xwL2VTw-114" value="&lt;&lt;servlet&gt;&gt;&#xa;:CVSServlet" style="shadow=1;fillColor=#A2C4C9;strokeColor=none" vertex="1" parent="1">
          <mxGeometry x="602.5" y="70" width="105" height="50" as="geometry" />
        </mxCell>
        <mxCell id="BsG8wyNZoEby_xwL2VTw-115" value="" style="edgeStyle=none;endArrow=none;dashed=1;rounded=0;" edge="1" parent="1" source="BsG8wyNZoEby_xwL2VTw-114" target="BsG8wyNZoEby_xwL2VTw-113">
          <mxGeometry x="614.4878472222224" y="174.99999999999997" width="100" height="100" as="geometry">
            <mxPoint x="654.6527777777778" y="120" as="sourcePoint" />
            <mxPoint x="654.6527777777778" y="270" as="targetPoint" />
          </mxGeometry>
        </mxCell>
        <mxCell id="BsG8wyNZoEby_xwL2VTw-116" value="&lt;&lt;service&gt;&gt;&#xa;:CVSService" style="shadow=1;fillColor=#A2C4C9;strokeColor=none" vertex="1" parent="1">
          <mxGeometry x="730" y="70" width="105" height="50" as="geometry" />
        </mxCell>
        <mxCell id="BsG8wyNZoEby_xwL2VTw-117" value="" style="edgeStyle=none;endArrow=none;dashed=1;rounded=0;" edge="1" parent="1" source="BsG8wyNZoEby_xwL2VTw-116" target="BsG8wyNZoEby_xwL2VTw-118">
          <mxGeometry x="727.3350694444446" y="165" width="100" height="100" as="geometry">
            <mxPoint x="782.2588734567901" y="120" as="sourcePoint" />
            <mxPoint x="782.5761959876544" y="175" as="targetPoint" />
          </mxGeometry>
        </mxCell>
        <mxCell id="BsG8wyNZoEby_xwL2VTw-118" value="" style="fillColor=#CC4125;strokeColor=#660000" vertex="1" parent="1">
          <mxGeometry x="777.4999999999999" y="299.3942901234568" width="10" height="40" as="geometry" />
        </mxCell>
        <mxCell id="BsG8wyNZoEby_xwL2VTw-119" value="&lt;&lt;ajax&gt;&gt;" style="edgeStyle=elbowEdgeStyle;elbow=vertical;verticalLabelPosition=top;verticalAlign=bottom;rounded=0;" edge="1" parent="1" source="BsG8wyNZoEby_xwL2VTw-111" target="BsG8wyNZoEby_xwL2VTw-113">
          <mxGeometry x="540" y="270" width="100" height="100" as="geometry">
            <mxPoint x="520" y="380" as="sourcePoint" />
            <mxPoint x="620" y="280" as="targetPoint" />
            <Array as="points">
              <mxPoint x="570" y="280" />
            </Array>
          </mxGeometry>
        </mxCell>
        <mxCell id="BsG8wyNZoEby_xwL2VTw-120" value="errors" style="edgeStyle=elbowEdgeStyle;elbow=vertical;dashed=1;verticalLabelPosition=bottom;verticalAlign=top;rounded=0;" edge="1" parent="1" source="BsG8wyNZoEby_xwL2VTw-113" target="BsG8wyNZoEby_xwL2VTw-111">
          <mxGeometry x="550" y="280" width="100" height="100" as="geometry">
            <mxPoint x="509.78395061728384" y="290" as="sourcePoint" />
            <mxPoint x="660" y="290" as="targetPoint" />
            <Array as="points">
              <mxPoint x="573" y="358" />
            </Array>
          </mxGeometry>
        </mxCell>
        <mxCell id="BsG8wyNZoEby_xwL2VTw-121" value="&lt;&lt;javascript&gt;&gt;&#xa;:GimqRequest&#xa;Batch" style="shadow=1;fillColor=#A2C4C9;strokeColor=none" vertex="1" parent="1">
          <mxGeometry x="932.5" y="70" width="105" height="50" as="geometry" />
        </mxCell>
        <mxCell id="BsG8wyNZoEby_xwL2VTw-122" value="" style="edgeStyle=elbowEdgeStyle;elbow=horizontal;endArrow=none;dashed=1;rounded=0;" edge="1" parent="1" source="BsG8wyNZoEby_xwL2VTw-101" target="BsG8wyNZoEby_xwL2VTw-99">
          <mxGeometry x="230.00000000000003" y="310" width="100" height="100" as="geometry">
            <mxPoint x="210.00000000000003" y="420" as="sourcePoint" />
            <mxPoint x="310" y="320" as="targetPoint" />
          </mxGeometry>
        </mxCell>
        <mxCell id="BsG8wyNZoEby_xwL2VTw-123" value="validate()" style="edgeStyle=elbowEdgeStyle;elbow=vertical;verticalLabelPosition=top;verticalAlign=bottom;rounded=0;" edge="1" parent="1">
          <mxGeometry x="550" y="261.7361111111111" width="100" height="100" as="geometry">
            <mxPoint x="660" y="301.1304012345679" as="sourcePoint" />
            <mxPoint x="777.4999999999999" y="301.1304012345679" as="targetPoint" />
            <Array as="points" />
          </mxGeometry>
        </mxCell>
        <mxCell id="BsG8wyNZoEby_xwL2VTw-124" value="errors" style="edgeStyle=elbowEdgeStyle;elbow=vertical;dashed=1;verticalLabelPosition=bottom;verticalAlign=top;rounded=0;" edge="1" parent="1">
          <mxGeometry x="560" y="309.65277777777777" width="100" height="100" as="geometry">
            <mxPoint x="777.4999999999999" y="339.0470679012346" as="sourcePoint" />
            <mxPoint x="660" y="339.0470679012346" as="targetPoint" />
            <Array as="points" />
          </mxGeometry>
        </mxCell>
        <mxCell id="BsG8wyNZoEby_xwL2VTw-125" value="" style="edgeStyle=elbowEdgeStyle;elbow=horizontal;endArrow=none;dashed=1;rounded=0;" edge="1" parent="1">
          <mxGeometry x="932.2588734567901" y="240" width="100" height="100" as="geometry">
            <mxPoint x="782.2588734567901" y="339.3942901234568" as="sourcePoint" />
            <mxPoint x="782.2588734567901" y="380" as="targetPoint" />
            <Array as="points">
              <mxPoint x="782.2588734567901" y="360" />
            </Array>
          </mxGeometry>
        </mxCell>
        <mxCell id="BsG8wyNZoEby_xwL2VTw-126" value="" style="ellipse;fillColor=none" vertex="1" parent="1">
          <mxGeometry x="782.5000000000001" y="314.3942901234568" width="9.999999999999886" height="10" as="geometry" />
        </mxCell>
        <mxCell id="BsG8wyNZoEby_xwL2VTw-127" value=" - user&#xa; validation&#xa;&#xa; - password check" style="shape=note;align=left" vertex="1" parent="1">
          <mxGeometry x="809.9729938271605" y="190.17361111111111" width="120.02700617283949" height="109.82638888888889" as="geometry" />
        </mxCell>
        <mxCell id="BsG8wyNZoEby_xwL2VTw-128" value="" style="edgeStyle=none;endArrow=none;dashed=1;rounded=0;" edge="1" parent="1" source="BsG8wyNZoEby_xwL2VTw-127" target="BsG8wyNZoEby_xwL2VTw-126">
          <mxGeometry x="1030" y="180" width="100" height="100" as="geometry">
            <mxPoint x="1010" y="290" as="sourcePoint" />
            <mxPoint x="1110" y="190" as="targetPoint" />
          </mxGeometry>
        </mxCell>
        <mxCell id="BsG8wyNZoEby_xwL2VTw-129" value="" style="fillColor=#CC4125;strokeColor=#660000" vertex="1" parent="1">
          <mxGeometry x="180" y="370" width="10" height="220" as="geometry" />
        </mxCell>
        <mxCell id="BsG8wyNZoEby_xwL2VTw-130" value="             &lt;&lt;callback&gt;&gt;                                " style="edgeStyle=elbowEdgeStyle;elbow=vertical;dashed=0;verticalLabelPosition=top;verticalAlign=bottom;align=right;rounded=0;" edge="1" parent="1" source="BsG8wyNZoEby_xwL2VTw-111" target="BsG8wyNZoEby_xwL2VTw-129">
          <mxGeometry x="190" y="329.75887345679007" width="100" height="100" as="geometry">
            <mxPoint x="480" y="320" as="sourcePoint" />
            <mxPoint x="200" y="380" as="targetPoint" />
            <Array as="points" />
          </mxGeometry>
        </mxCell>
        <mxCell id="BsG8wyNZoEby_xwL2VTw-131" value="" style="edgeStyle=none;dashed=1;endArrow=none;rounded=0;" edge="1" parent="1" source="BsG8wyNZoEby_xwL2VTw-99" target="BsG8wyNZoEby_xwL2VTw-129">
          <mxGeometry x="50" y="300" width="100" height="100" as="geometry">
            <mxPoint x="30" y="410" as="sourcePoint" />
            <mxPoint x="130" y="310" as="targetPoint" />
          </mxGeometry>
        </mxCell>
        <mxCell id="BsG8wyNZoEby_xwL2VTw-132" value="" style="edgeStyle=elbowEdgeStyle;elbow=vertical;endArrow=none;rounded=0;" edge="1" parent="1" source="BsG8wyNZoEby_xwL2VTw-129">
          <mxGeometry x="60" y="310" width="100" height="100" as="geometry">
            <mxPoint x="40" y="420" as="sourcePoint" />
            <mxPoint x="130" y="370" as="targetPoint" />
          </mxGeometry>
        </mxCell>
        <mxCell id="BsG8wyNZoEby_xwL2VTw-133" value="{100..600ms}" style="edgeStyle=elbowEdgeStyle;elbow=horizontal;startArrow=open;endArrow=open;labelPosition=left;align=right;rounded=0;" edge="1" parent="1">
          <mxGeometry x="61.20563271604938" y="290" width="100" height="100" as="geometry">
            <mxPoint x="161.20563271604937" y="290" as="sourcePoint" />
            <mxPoint x="161.20563271604937" y="370" as="targetPoint" />
          </mxGeometry>
        </mxCell>
        <mxCell id="BsG8wyNZoEby_xwL2VTw-134" value="" style="fillColor=#CC4125;strokeColor=#660000" vertex="1" parent="1">
          <mxGeometry x="322.5" y="474.1666666666667" width="10" height="95.83333333333331" as="geometry" />
        </mxCell>
        <mxCell id="BsG8wyNZoEby_xwL2VTw-135" value="" style="fillColor=#CC4125;strokeColor=#660000" vertex="1" parent="1">
          <mxGeometry x="980" y="478.3333333333333" width="10" height="81.66666666666669" as="geometry" />
        </mxCell>
        <mxCell id="BsG8wyNZoEby_xwL2VTw-136" value="" style="edgeStyle=none;endArrow=none;dashed=1;rounded=0;" edge="1" parent="1" source="BsG8wyNZoEby_xwL2VTw-121" target="BsG8wyNZoEby_xwL2VTw-135">
          <mxGeometry x="956.5711805555559" y="205" width="100" height="100" as="geometry">
            <mxPoint x="1011.7361111111113" y="160" as="sourcePoint" />
            <mxPoint x="1011.7361111111113" y="339.3942901234568" as="targetPoint" />
          </mxGeometry>
        </mxCell>
        <mxCell id="BsG8wyNZoEby_xwL2VTw-137" value="post_comments()" style="edgeStyle=elbowEdgeStyle;elbow=vertical;verticalLabelPosition=top;verticalAlign=bottom;rounded=0;" edge="1" parent="1">
          <mxGeometry x="212.5" y="469.58333333333337" width="100" height="100" as="geometry">
            <mxPoint x="190" y="479.58333333333337" as="sourcePoint" />
            <mxPoint x="322.5" y="479.58333333333337" as="targetPoint" />
            <Array as="points" />
          </mxGeometry>
        </mxCell>
        <mxCell id="BsG8wyNZoEby_xwL2VTw-138" value="" style="edgeStyle=none;endArrow=none;dashed=1;rounded=0;" edge="1" parent="1" source="BsG8wyNZoEby_xwL2VTw-102" target="BsG8wyNZoEby_xwL2VTw-134">
          <mxGeometry x="376.5711805555559" y="339.6971450617284" width="100" height="100" as="geometry">
            <mxPoint x="431.7361111111112" y="294.6971450617284" as="sourcePoint" />
            <mxPoint x="431.7361111111112" y="474.0914351851852" as="targetPoint" />
          </mxGeometry>
        </mxCell>
        <mxCell id="BsG8wyNZoEby_xwL2VTw-139" value="BeginRequest()" style="edgeStyle=elbowEdgeStyle;elbow=vertical;verticalLabelPosition=top;verticalAlign=bottom;rounded=0;" edge="1" parent="1">
          <mxGeometry x="530" y="436.8055555555556" width="100" height="100" as="geometry">
            <mxPoint x="332.5" y="487.56944444444446" as="sourcePoint" />
            <mxPoint x="980" y="487.56944444444446" as="targetPoint" />
            <Array as="points" />
          </mxGeometry>
        </mxCell>
        <mxCell id="BsG8wyNZoEby_xwL2VTw-140" value="" style="edgeStyle=elbowEdgeStyle;elbow=vertical;dashed=1;verticalLabelPosition=bottom;verticalAlign=top;rounded=0;" edge="1" parent="1">
          <mxGeometry x="530" y="549.0779320987654" width="100" height="100" as="geometry">
            <mxPoint x="980" y="551.7361111111111" as="sourcePoint" />
            <mxPoint x="332.49999999999994" y="551.7361111111111" as="targetPoint" />
            <Array as="points" />
          </mxGeometry>
        </mxCell>
        <mxCell id="BsG8wyNZoEby_xwL2VTw-141" value="&lt;&lt;javascript&gt;&gt;&#xa;:Proxy" style="shadow=1;fillColor=#A2C4C9;strokeColor=none" vertex="1" parent="1">
          <mxGeometry x="1070" y="472.08333333333337" width="105" height="50" as="geometry" />
        </mxCell>
        <mxCell id="BsG8wyNZoEby_xwL2VTw-142" value="" style="edgeStyle=none;endArrow=none;dashed=1;rounded=0;" edge="1" parent="1" source="BsG8wyNZoEby_xwL2VTw-141" target="BsG8wyNZoEby_xwL2VTw-143">
          <mxGeometry x="1204.0711805555559" y="380.08680555555554" width="100" height="100" as="geometry">
            <mxPoint x="1259.2361111111113" y="335.08680555555554" as="sourcePoint" />
            <mxPoint x="1330" y="455.08680555555554" as="targetPoint" />
          </mxGeometry>
        </mxCell>
        <mxCell id="BsG8wyNZoEby_xwL2VTw-143" value="" style="fillColor=#CC4125;strokeColor=#660000" vertex="1" parent="1">
          <mxGeometry x="1117.5" y="540" width="10" height="90" as="geometry" />
        </mxCell>
        <mxCell id="BsG8wyNZoEby_xwL2VTw-144" value="" style="fillColor=#CC4125;strokeColor=#660000" vertex="1" parent="1">
          <mxGeometry x="1330" y="550" width="10" height="70" as="geometry" />
        </mxCell>
        <mxCell id="BsG8wyNZoEby_xwL2VTw-145" value="&lt;&lt;create&gt;&gt;" style="edgeStyle=elbowEdgeStyle;elbow=vertical;verticalLabelPosition=top;verticalAlign=bottom;dashed=1;rounded=0;" edge="1" parent="1" source="BsG8wyNZoEby_xwL2VTw-135" target="BsG8wyNZoEby_xwL2VTw-141">
          <mxGeometry x="901.25" y="322.5" width="100" height="100" as="geometry">
            <mxPoint x="1011.25" y="361.8942901234568" as="sourcePoint" />
            <mxPoint x="1128.75" y="361.8942901234568" as="targetPoint" />
            <Array as="points" />
          </mxGeometry>
        </mxCell>
        <mxCell id="BsG8wyNZoEby_xwL2VTw-146" value="&lt;&lt;ajax&gt;&gt;" style="edgeStyle=elbowEdgeStyle;elbow=vertical;verticalLabelPosition=top;verticalAlign=bottom;rounded=0;" edge="1" parent="1" source="BsG8wyNZoEby_xwL2VTw-135" target="BsG8wyNZoEby_xwL2VTw-143">
          <mxGeometry x="1065" y="359.5" width="100" height="100" as="geometry">
            <mxPoint x="1024.7839506172838" y="369.5" as="sourcePoint" />
            <mxPoint x="1175" y="369.5" as="targetPoint" />
            <Array as="points" />
          </mxGeometry>
        </mxCell>
        <mxCell id="BsG8wyNZoEby_xwL2VTw-147" value="postComments()" style="edgeStyle=elbowEdgeStyle;elbow=vertical;verticalLabelPosition=top;verticalAlign=bottom;rounded=0;" edge="1" parent="1">
          <mxGeometry x="1225" y="309.5" width="100" height="100" as="geometry">
            <mxPoint x="1127.5" y="552.5" as="sourcePoint" />
            <mxPoint x="1330" y="552.5" as="targetPoint" />
            <Array as="points" />
          </mxGeometry>
        </mxCell>
        <mxCell id="BsG8wyNZoEby_xwL2VTw-148" value="&lt;&lt;json&gt;&gt;" style="edgeStyle=elbowEdgeStyle;elbow=vertical;dashed=1;verticalLabelPosition=bottom;verticalAlign=top;rounded=0;" edge="1" parent="1">
          <mxGeometry x="1075" y="396" width="100" height="100" as="geometry">
            <mxPoint x="1330" y="616.5" as="sourcePoint" />
            <mxPoint x="1127.5" y="616.5" as="targetPoint" />
            <Array as="points" />
          </mxGeometry>
        </mxCell>
        <mxCell id="BsG8wyNZoEby_xwL2VTw-149" value="&lt;&lt;service&gt;&gt;&#xa;:GimqService" style="shadow=1;fillColor=#A2C4C9;strokeColor=none" vertex="1" parent="1">
          <mxGeometry x="1282.5" y="70" width="105" height="50" as="geometry" />
        </mxCell>
        <mxCell id="BsG8wyNZoEby_xwL2VTw-150" value="" style="edgeStyle=none;endArrow=none;dashed=1;rounded=0;" edge="1" parent="1" source="BsG8wyNZoEby_xwL2VTw-149" target="BsG8wyNZoEby_xwL2VTw-144">
          <mxGeometry x="1174.0711805555559" y="210" width="100" height="100" as="geometry">
            <mxPoint x="1202.5" y="125" as="sourcePoint" />
            <mxPoint x="1202.5" y="455" as="targetPoint" />
          </mxGeometry>
        </mxCell>
        <mxCell id="BsG8wyNZoEby_xwL2VTw-151" value="" style="fillColor=#CC4125;strokeColor=#660000" vertex="1" parent="1">
          <mxGeometry x="180" y="610" width="10" height="130" as="geometry" />
        </mxCell>
        <mxCell id="BsG8wyNZoEby_xwL2VTw-152" value="" style="edgeStyle=elbowEdgeStyle;elbow=vertical;dashed=1;verticalLabelPosition=bottom;verticalAlign=top;rounded=0;" edge="1" parent="1">
          <mxGeometry x="507.50000000000006" y="664.3418209876543" width="100" height="100" as="geometry">
            <mxPoint x="322.5" y="559.5" as="sourcePoint" />
            <mxPoint x="190" y="559.5" as="targetPoint" />
            <Array as="points" />
          </mxGeometry>
        </mxCell>
        <mxCell id="BsG8wyNZoEby_xwL2VTw-153" value="&lt;&lt;callback&gt;&gt;" style="edgeStyle=elbowEdgeStyle;elbow=vertical;dashed=1;verticalLabelPosition=bottom;verticalAlign=bottom;rounded=0;" edge="1" parent="1" source="BsG8wyNZoEby_xwL2VTw-143" target="BsG8wyNZoEby_xwL2VTw-151">
          <mxGeometry x="540" y="559.0779320987654" width="100" height="100" as="geometry">
            <mxPoint x="990" y="561.7361111111111" as="sourcePoint" />
            <mxPoint x="342.49999999999994" y="561.7361111111111" as="targetPoint" />
            <Array as="points" />
          </mxGeometry>
        </mxCell>
        <mxCell id="BsG8wyNZoEby_xwL2VTw-154" value="rt submit_changes" style="rounded=1;fontStyle=1;fillColor=#FFD966;strokeColor=none" vertex="1" parent="1">
          <mxGeometry x="30" y="30" width="150" height="30" as="geometry" />
        </mxCell>
        <mxCell id="BsG8wyNZoEby_xwL2VTw-155" value="opt" style="rounded=1;fontStyle=1;fillColor=#FFD966;strokeColor=none" vertex="1" parent="1">
          <mxGeometry x="132.5" y="430" width="87.5" height="30" as="geometry" />
        </mxCell>
        <mxCell id="BsG8wyNZoEby_xwL2VTw-156" value="Handle errors from Gimq" style="fillColor=#BFC8DB" vertex="1" parent="1">
          <mxGeometry x="170" y="635" width="310" height="60.55555555555554" as="geometry" />
        </mxCell>
        <mxCell id="BsG8wyNZoEby_xwL2VTw-157" value="ref" style="rounded=1;fontStyle=1;fillColor=#FFD966;strokeColor=none" vertex="1" parent="1">
          <mxGeometry x="176.25" y="642.8935185185186" width="53.75" height="25" as="geometry" />
        </mxCell>
        <mxCell id="BsG8wyNZoEby_xwL2VTw-158" value="" style="align=left;fillColor=#BFC8DB" vertex="1" parent="1">
          <mxGeometry x="169.99999999999997" y="709.7222222222223" width="1201.1944444444443" height="60.55555555555554" as="geometry" />
        </mxCell>
        <mxCell id="BsG8wyNZoEby_xwL2VTw-159" value="ref" style="rounded=1;fontStyle=1;fillColor=#FFD966;strokeColor=none" vertex="1" parent="1">
          <mxGeometry x="176.24999999999997" y="717.6157407407409" width="53.75" height="25" as="geometry" />
        </mxCell>
        <mxCell id="BsG8wyNZoEby_xwL2VTw-160" value="Request all changes" style="text;align=left" vertex="1" parent="1">
          <mxGeometry x="248.05555555555554" y="730.1157407407408" width="351.80555555555554" height="26" as="geometry" />
        </mxCell>
        <mxCell id="BsG8wyNZoEby_xwL2VTw-161" value="" style="edgeStyle=elbowEdgeStyle;elbow=vertical;endArrow=none;rounded=0;" edge="1" parent="1">
          <mxGeometry x="59.999999999999986" y="419.7106481481482" width="100" height="100" as="geometry">
            <mxPoint x="180" y="479.7106481481482" as="sourcePoint" />
            <mxPoint x="129.99999999999997" y="479.7106481481482" as="targetPoint" />
          </mxGeometry>
        </mxCell>
        <mxCell id="BsG8wyNZoEby_xwL2VTw-162" value="" style="edgeStyle=elbowEdgeStyle;elbow=vertical;endArrow=none;rounded=0;" edge="1" parent="1">
          <mxGeometry x="60" y="499.71064814814815" width="100" height="100" as="geometry">
            <mxPoint x="180.00000000000003" y="559.7106481481482" as="sourcePoint" />
            <mxPoint x="130" y="559.7106481481482" as="targetPoint" />
          </mxGeometry>
        </mxCell>
        <mxCell id="BsG8wyNZoEby_xwL2VTw-163" value="" style="edgeStyle=elbowEdgeStyle;elbow=vertical;endArrow=none;rounded=0;" edge="1" parent="1">
          <mxGeometry x="59.999999999999986" y="559.7106481481482" width="100" height="100" as="geometry">
            <mxPoint x="180" y="619.7106481481482" as="sourcePoint" />
            <mxPoint x="129.99999999999997" y="619.7106481481482" as="targetPoint" />
          </mxGeometry>
        </mxCell>
        <mxCell id="BsG8wyNZoEby_xwL2VTw-164" value="" style="edgeStyle=elbowEdgeStyle;elbow=vertical;endArrow=none;rounded=0;" edge="1" parent="1">
          <mxGeometry x="49.99999999999999" y="649.4328703703704" width="100" height="100" as="geometry">
            <mxPoint x="170.00000000000003" y="709.4328703703704" as="sourcePoint" />
            <mxPoint x="120" y="709.4328703703704" as="targetPoint" />
          </mxGeometry>
        </mxCell>
        <mxCell id="BsG8wyNZoEby_xwL2VTw-165" value="" style="edgeStyle=elbowEdgeStyle;elbow=vertical;endArrow=none;rounded=0;" edge="1" parent="1">
          <mxGeometry x="49.99999999999993" y="709.9884259259259" width="100" height="100" as="geometry">
            <mxPoint x="169.99999999999994" y="769.9884259259259" as="sourcePoint" />
            <mxPoint x="119.99999999999994" y="769.9884259259259" as="targetPoint" />
          </mxGeometry>
        </mxCell>
        <mxCell id="BsG8wyNZoEby_xwL2VTw-166" value="{5..50ms}" style="edgeStyle=elbowEdgeStyle;elbow=horizontal;startArrow=open;endArrow=open;labelPosition=left;align=right;rounded=0;" edge="1" parent="1">
          <mxGeometry x="41.44675925925927" y="479.1666666666667" width="100" height="100" as="geometry">
            <mxPoint x="141.44675925925927" y="479.1666666666667" as="sourcePoint" />
            <mxPoint x="141.44675925925927" y="559.1666666666667" as="targetPoint" />
          </mxGeometry>
        </mxCell>
        <mxCell id="BsG8wyNZoEby_xwL2VTw-167" value="{1..500ms}" style="edgeStyle=elbowEdgeStyle;elbow=horizontal;startArrow=open;endArrow=open;labelPosition=left;align=right;rounded=0;" edge="1" parent="1">
          <mxGeometry x="42.89351851851853" y="560" width="100" height="100" as="geometry">
            <mxPoint x="141.44675925925927" y="560" as="sourcePoint" />
            <mxPoint x="141.44675925925927" y="620" as="targetPoint" />
          </mxGeometry>
        </mxCell>
        <mxCell id="BsG8wyNZoEby_xwL2VTw-168" value="{10..50ms}" style="edgeStyle=elbowEdgeStyle;elbow=horizontal;startArrow=open;endArrow=open;labelPosition=left;align=right;rounded=0;" edge="1" parent="1">
          <mxGeometry width="100" height="100" as="geometry">
            <mxPoint x="133.94675925925927" y="710.2777777777778" as="sourcePoint" />
            <mxPoint x="133.94675925925927" y="770.2777777777778" as="targetPoint" />
            <mxPoint x="-4.236111111111107" y="-0.2777777777777883" as="offset" />
          </mxGeometry>
        </mxCell>
      </root>
    </mxGraphModel>
  </diagram>
</mxfile>
